<svg width="66" height="30" viewBox="0 0 66 30" fill="none" xmlns="http://www.w3.org/2000/svg">
<path fill-rule="evenodd" clip-rule="evenodd" d="M9.89445 13.8469C9.72422 13.8409 9.55462 13.8708 9.39648 13.9345C9.23833 13.9982 9.0951 14.0944 8.97594 14.217C8.85562 14.3403 8.76126 14.4869 8.69851 14.6478C8.63576 14.8087 8.60592 14.9808 8.61078 15.1536V19.3849C8.479 19.26 8.33985 19.1432 8.19409 19.0351C7.78411 18.7314 7.33095 18.4917 6.84994 18.3243C6.3105 18.1364 5.74268 18.0448 5.17198 18.0535C4.24738 18.0451 3.34067 18.3103 2.56432 18.8162C1.7697 19.3397 1.12544 20.0642 0.695942 20.9172C0.217288 21.8816 -0.0210697 22.949 0.001461 24.027C-0.019587 25.0983 0.218779 26.1587 0.695942 27.1164C1.12698 27.9772 1.78009 28.7053 2.58672 29.2242C3.38448 29.7344 4.3122 30.0002 5.25711 29.9892C5.77107 29.9939 6.28147 29.9029 6.76257 29.7206C7.19303 29.5585 7.59933 29.3375 7.97007 29.0639C8.20248 28.892 8.41781 28.6978 8.61302 28.484C8.61087 28.6529 8.64181 28.8205 8.70409 28.9774C8.76637 29.1342 8.85875 29.2771 8.97594 29.3979C9.22158 29.6394 9.55121 29.7746 9.89445 29.7746C10.2377 29.7746 10.5673 29.6394 10.813 29.3979C10.9325 29.2741 11.0261 29.1275 11.0885 28.9666C11.1508 28.8058 11.1805 28.634 11.1759 28.4614V15.1604C11.1821 14.9865 11.1531 14.8133 11.0907 14.6511C11.0283 14.4889 10.9338 14.3413 10.813 14.217C10.6927 14.0962 10.5492 14.0015 10.3912 13.9386C10.2333 13.8758 10.0642 13.8461 9.89445 13.8515V13.8469ZM8.32627 25.8617C8.08148 26.3837 7.70149 26.8297 7.2263 27.1525C6.73734 27.4739 6.16343 27.6391 5.57971 27.6264C5.00328 27.6369 4.43714 27.4717 3.95552 27.1525C3.47974 26.8303 3.09959 26.3842 2.85555 25.8617C2.58821 25.2881 2.45486 24.6605 2.46575 24.027C2.45553 23.3879 2.59039 22.755 2.86003 22.1765C3.10407 21.6539 3.48422 21.2078 3.96 20.8856C4.44163 20.5664 5.00776 20.4012 5.58419 20.4117C6.16791 20.399 6.74182 20.5642 7.23078 20.8856C7.70597 21.2085 8.08596 21.6544 8.33075 22.1765C8.60039 22.755 8.73525 23.3879 8.72503 24.027C8.73383 24.6593 8.59897 25.2853 8.33075 25.8572L8.32627 25.8617ZM23.5242 18.0535C23.3535 18.0486 23.1837 18.0796 23.0256 18.1445C22.8674 18.2094 22.7244 18.3067 22.6057 18.4303C22.486 18.554 22.3922 18.7006 22.3298 18.8615C22.2675 19.0224 22.2379 19.1942 22.2428 19.3669V19.3939C22.11 19.2701 21.9709 19.1533 21.8261 19.0441C21.4158 18.7409 20.9627 18.5012 20.4819 18.3333C19.9429 18.1428 19.3752 18.0481 18.804 18.0535C17.8793 18.0448 16.9725 18.31 16.1963 18.8162C15.4047 19.34 14.7641 20.0646 14.3391 20.9172C13.8605 21.8816 13.6221 22.949 13.6446 24.027C13.6236 25.0983 13.862 26.1587 14.3391 27.1164C14.7688 27.9782 15.4222 28.7065 16.2299 29.2242C17.0277 29.7344 17.9554 30.0002 18.9003 29.9892C19.4082 29.9913 19.9123 29.9003 20.3878 29.7206C20.8181 29.558 21.2243 29.3371 21.5953 29.0639C21.8271 28.892 22.0416 28.6978 22.236 28.484C22.2327 28.8249 22.3631 29.1534 22.599 29.3979C22.8446 29.6394 23.1742 29.7746 23.5175 29.7746C23.8607 29.7746 24.1903 29.6394 24.436 29.3979C24.5555 29.2741 24.6492 29.1275 24.7115 28.9666C24.7738 28.8058 24.8035 28.634 24.7989 28.4614V19.3578C24.8057 19.1833 24.777 19.0091 24.7146 18.8462C24.6522 18.6832 24.5574 18.5347 24.436 18.41C24.3157 18.2917 24.173 18.1991 24.0163 18.1378C23.8596 18.0765 23.6922 18.0478 23.5242 18.0535ZM21.956 25.8662C21.712 26.3887 21.3318 26.8348 20.856 27.157C20.3678 27.4781 19.7947 27.6433 19.2117 27.6309C18.6352 27.6417 18.069 27.4765 17.5875 27.157C17.1112 26.8354 16.7309 26.3892 16.4875 25.8662C16.2176 25.2949 16.0819 24.6686 16.091 24.036C16.0805 23.3967 16.2161 22.7635 16.4875 22.1855C16.7309 21.6625 17.1112 21.2162 17.5875 20.8946C18.069 20.5752 18.6352 20.41 19.2117 20.4207C19.7947 20.4084 20.3678 20.5736 20.856 20.8946C21.3306 21.2143 21.7106 21.6572 21.956 22.1765C22.2274 22.7545 22.3631 23.3876 22.3525 24.027C22.3617 24.6596 22.226 25.2859 21.956 25.8572V25.8662ZM47.2821 26.9968C47.4885 26.8529 47.7375 26.7844 47.9878 26.8027V26.8117C48.1476 26.8022 48.3074 26.8294 48.4553 26.8911C48.6031 26.9529 48.7351 27.0477 48.8414 27.1683C49.0437 27.412 49.1505 27.7218 49.1415 28.0394C49.1415 28.3914 48.9422 28.7179 48.5434 29.0188C48.0669 29.348 47.5358 29.5887 46.9752 29.7297C46.289 29.9132 45.5816 30.0035 44.8716 29.9982C43.841 30.0246 42.8247 29.752 41.9436 29.2129C41.1207 28.692 40.4582 27.9504 40.0304 27.0713C39.5733 26.1265 39.3431 25.0868 39.3583 24.036C39.3354 22.9553 39.5819 21.8861 40.0752 20.9262C40.5314 20.0515 41.2192 19.3212 42.0623 18.8162C42.9459 18.2991 43.953 18.0353 44.9747 18.0535C45.6912 18.0385 46.4065 18.122 47.1007 18.3017C47.62 18.43 48.1029 18.6771 48.512 19.0238C48.6703 19.161 48.7971 19.3311 48.8837 19.5224C48.9704 19.7137 49.0148 19.9216 49.0139 20.1319C49.0132 20.4216 48.9232 20.7039 48.7562 20.9398C48.6748 21.0621 48.5632 21.1612 48.4325 21.2272C48.3018 21.2933 48.1563 21.3241 48.0102 21.3167C47.8168 21.3222 47.6242 21.2892 47.4434 21.2196C47.2995 21.1577 47.1658 21.074 47.0469 20.9714C46.9226 20.863 46.7866 20.7691 46.6414 20.6915C46.4376 20.5855 46.217 20.516 45.9895 20.4862C45.7744 20.4447 45.5564 20.4198 45.3376 20.4117C44.6895 20.3912 44.0489 20.5555 43.4894 20.8856C42.9909 21.1945 42.5881 21.6377 42.3267 22.1652C42.0461 22.7444 41.9063 23.3826 41.9189 24.027C41.9087 24.6656 42.0516 25.2974 42.3356 25.8684C42.6004 26.3907 42.9987 26.8324 43.4894 27.148C43.9986 27.4686 44.5893 27.6333 45.1897 27.6219C45.4971 27.625 45.8043 27.6031 46.1082 27.5565C46.3303 27.5248 46.5464 27.4594 46.7489 27.3624C46.9372 27.2569 47.1157 27.1345 47.2821 26.9968ZM53.1808 14.5352C52.9822 14.3848 52.6327 14.3096 52.1324 14.3096C51.7796 14.2856 51.4275 14.3639 51.1175 14.5352C50.8935 14.6864 50.786 14.9708 50.786 15.386V15.7945C50.786 16.1984 50.8868 16.4715 51.0862 16.634C51.2855 16.7965 51.6283 16.8596 52.1122 16.8596C52.4753 16.889 52.8391 16.8106 53.1584 16.634C53.3712 16.4828 53.4788 16.2007 53.4788 15.7832V15.3747C53.4788 14.973 53.3802 14.6977 53.1808 14.5352ZM51.6337 18.3498C51.7919 18.285 51.9617 18.254 52.1324 18.2588H52.1368C52.3076 18.2537 52.4775 18.2846 52.6356 18.3495C52.7938 18.4144 52.9368 18.5118 53.0553 18.6357C53.1752 18.7593 53.2693 18.9058 53.3321 19.0667C53.3948 19.2276 53.4249 19.3994 53.4205 19.5722V28.4614C53.4246 28.6341 53.3944 28.8059 53.3317 28.9668C53.269 29.1276 53.175 29.2742 53.0553 29.3979C52.8097 29.6394 52.4801 29.7746 52.1368 29.7746C51.7936 29.7746 51.464 29.6394 51.2183 29.3979C51.0989 29.2741 51.0053 29.1274 50.943 28.9666C50.8807 28.8057 50.8509 28.634 50.8554 28.4614V19.5722C50.8502 19.3999 50.8792 19.2283 50.9407 19.0675C51.0023 18.9066 51.0951 18.7598 51.2138 18.6357C51.3326 18.5121 51.4756 18.4147 51.6337 18.3498ZM65.6882 20.4862C65.5108 19.7897 65.1186 19.1678 64.568 18.7102C64.0184 18.2588 63.2172 18.0331 62.1642 18.0331C61.7065 18.0286 61.2516 18.105 60.8201 18.2588C60.4202 18.4002 60.0429 18.5994 59.7 18.8501C59.388 19.0799 59.1018 19.3432 58.8464 19.6354C58.759 19.737 58.6829 19.8317 58.6224 19.9288V19.5722C58.6256 19.3988 58.5941 19.2265 58.5298 19.0657C58.4655 18.9048 58.3698 18.7585 58.2483 18.6357C58.0026 18.3942 57.673 18.259 57.3298 18.259C56.9865 18.259 56.6569 18.3942 56.4112 18.6357C56.2909 18.759 56.1966 18.9055 56.1338 19.0664C56.0711 19.2274 56.0412 19.3994 56.0461 19.5722V24.9432C56.0411 25.116 56.0709 25.2881 56.1336 25.4491C56.1964 25.61 56.2908 25.7565 56.4112 25.8797C56.6569 26.1212 56.9865 26.2564 57.3298 26.2564C57.673 26.2564 58.0026 26.1212 58.2483 25.8797C58.368 25.7561 58.4618 25.6095 58.5241 25.4486C58.5865 25.2877 58.6161 25.1158 58.6112 24.9432V23.878C58.6112 23.4041 58.7142 22.0501 58.9203 21.671C59.1297 21.2901 59.4399 20.9753 59.8164 20.7615C60.2579 20.5205 60.7551 20.4022 61.2569 20.4185C61.7295 20.3892 62.1994 20.5091 62.6011 20.7615C62.9094 20.9837 63.1381 21.3003 63.253 21.6642C63.3791 22.0786 63.4403 22.5103 63.4345 22.9437V28.4546C63.4299 28.6272 63.4597 28.799 63.522 28.9598C63.5844 29.1206 63.678 29.2673 63.7974 29.3912C64.0434 29.6328 64.3734 29.7681 64.717 29.7681C65.0606 29.7681 65.3906 29.6328 65.6366 29.3912C65.756 29.2673 65.8497 29.1206 65.912 28.9598C65.9743 28.799 66.0041 28.6272 65.9996 28.4546V22.9505C66.0079 22.1186 65.9032 21.2895 65.6882 20.4862ZM33.2178 18.0354C34.2722 18.0354 35.0735 18.2611 35.6216 18.7124C36.1717 19.1696 36.5638 19.7905 36.7417 20.4862C36.959 21.2891 37.066 22.1183 37.0598 22.9505V28.4546C37.0645 28.6272 37.0347 28.799 36.9724 28.9599C36.9101 29.1207 36.8164 29.2674 36.6969 29.3912C36.4513 29.6327 36.1216 29.7678 35.7784 29.7678C35.4352 29.7678 35.1055 29.6327 34.8599 29.3912C34.7396 29.2679 34.6452 29.1214 34.5825 28.9604C34.5197 28.7995 34.4899 28.6275 34.4947 28.4546V22.9437C34.5006 22.5103 34.4394 22.0786 34.3133 21.6642C34.2002 21.2981 33.9722 20.979 33.6636 20.7547C33.262 20.5019 32.792 20.382 32.3194 20.4117C31.8169 20.3954 31.319 20.5138 30.8767 20.7547C30.4993 20.9703 30.189 21.2876 29.9806 21.671C29.7745 22.0501 29.6714 23.4041 29.6714 23.878V24.9432C29.6763 25.1158 29.6467 25.2877 29.5844 25.4486C29.522 25.6095 29.4282 25.7561 29.3085 25.8797C29.0629 26.1212 28.7333 26.2564 28.39 26.2564C28.0468 26.2564 27.7171 26.1212 27.4715 25.8797C27.3518 25.7561 27.258 25.6095 27.1956 25.4486C27.1333 25.2877 27.1037 25.1158 27.1086 24.9432V19.5722C27.1028 19.4002 27.1311 19.2288 27.1918 19.068C27.2526 18.9072 27.3447 18.7602 27.4625 18.6357C27.7082 18.3942 28.0378 18.259 28.3811 18.259C28.7243 18.259 29.0539 18.3942 29.2996 18.6357C29.4191 18.7595 29.5127 18.9061 29.5751 19.067C29.6374 19.2278 29.6671 19.3996 29.6625 19.5722V19.931C29.7342 19.8363 29.8103 19.7392 29.8977 19.6377C30.1533 19.3449 30.4403 19.0815 30.7535 18.8523C31.0963 18.6014 31.4737 18.4022 31.8736 18.2611C32.3052 18.1074 32.7601 18.0311 33.2178 18.0354Z" fill="white"/>
<path d="M47.3203 3.59701C47.0419 2.93309 46.6456 2.32589 46.1509 1.80518C45.6687 1.29478 45.0948 0.881251 44.4595 0.586559C43.8241 0.287632 43.1311 0.133525 42.4298 0.135217C41.505 0.134142 40.5968 0.382727 39.7997 0.855107C38.9564 1.3493 38.2601 2.06239 37.7835 2.92C37.2484 3.91713 36.9841 5.0389 37.0173 6.17191V6.18997C36.9746 7.01553 36.641 7.79868 36.0764 8.39863C35.5118 8.99858 34.7533 9.37599 33.9372 9.46301C33.1211 9.55003 32.3009 9.34096 31.6242 8.87338C30.9474 8.4058 30.4584 7.71038 30.245 6.91212C30.2083 6.73209 30.1851 6.54953 30.1756 6.36599V5.91465V4.20181C30.1805 4.02917 30.1509 3.8573 30.0885 3.69642C30.0262 3.53553 29.9324 3.38891 29.8127 3.26527C29.7002 3.14782 29.5656 3.05419 29.4167 2.98986C29.2678 2.92553 29.1077 2.8918 28.9457 2.89066H28.9009C28.7302 2.88581 28.5604 2.91681 28.4022 2.9817C28.2441 3.04658 28.1011 3.14393 27.9824 3.26753C27.8627 3.39117 27.7688 3.53779 27.7065 3.69867C27.6441 3.85956 27.6145 4.03143 27.6194 4.20406V6.33891C27.6041 6.68216 27.5283 7.01991 27.3954 7.33638V7.35669C27.1356 7.96937 26.7063 8.49384 26.1588 8.86755C25.6112 9.24126 24.9685 9.44844 24.3073 9.46437C23.6461 9.48031 22.9943 9.30434 22.4297 8.95744C21.865 8.61053 21.4113 8.10735 21.1227 7.50789C20.932 6.9816 20.8283 6.42736 20.8158 5.86726V1.31322C20.8204 1.14061 20.7907 0.968817 20.7284 0.807968C20.666 0.647119 20.5724 0.500474 20.4528 0.376685C20.2072 0.135185 19.8776 0 19.5343 0C19.1911 0 18.8615 0.135185 18.6158 0.376685C18.4963 0.500474 18.4027 0.647119 18.3403 0.807968C18.278 0.968817 18.2483 1.14061 18.2529 1.31322V5.79504C18.2529 5.84243 18.2529 5.88983 18.2529 5.93496C18.2529 5.93496 18.2529 6.0004 18.2529 6.10421C18.2529 6.12001 18.2529 6.13355 18.2529 6.14709C18.2529 6.16063 18.2529 6.23962 18.2529 6.29378C18.3054 6.97213 18.4713 7.63668 18.7435 8.25937C19.1885 9.35535 19.9477 10.2928 20.9242 10.9521C21.9006 11.6113 23.05 11.9623 24.2254 11.9604H24.3621C25.2434 11.9379 26.1086 11.7168 26.894 11.3134C27.6794 10.91 28.3652 10.3345 28.9009 9.62919C29.4431 10.34 30.1379 10.918 30.9333 11.32C31.7287 11.7219 32.6041 11.9374 33.4939 11.9502C34.3837 11.963 35.2648 11.7728 36.0713 11.394C36.8778 11.0151 37.5888 10.4573 38.1509 9.76234C38.5826 10.3293 39.1246 10.8015 39.7437 11.1502C40.5309 11.5649 41.3933 11.8145 42.2789 11.8839C43.1646 11.9534 44.055 11.8412 44.8963 11.5542C45.4526 11.3757 45.9729 11.0991 46.4331 10.7372C46.605 10.6227 46.7477 10.4691 46.8496 10.2888C46.9516 10.1084 47.01 9.90644 47.0201 9.69915C47.0195 9.55861 46.9913 9.41958 46.937 9.2901C46.8827 9.16063 46.8035 9.04328 46.7039 8.94485C46.6043 8.84642 46.4864 8.76886 46.3568 8.71666C46.2273 8.66446 46.0888 8.63867 45.9493 8.64075C45.6989 8.64711 45.4535 8.71201 45.2324 8.83032C45.0778 8.91607 44.9075 9.01763 44.7171 9.13723C44.4848 9.27607 44.2334 9.3795 43.9711 9.44414C43.5646 9.54072 43.1475 9.58395 42.73 9.57278C42.1744 9.57297 41.6278 9.43086 41.1417 9.1598C40.6348 8.87435 40.2138 8.45647 39.923 7.9502C39.733 7.62694 39.601 7.27248 39.5331 6.90309H46.478C46.8052 6.91045 47.1238 6.79731 47.3741 6.58489C47.4962 6.48474 47.5951 6.35895 47.664 6.21629C47.7329 6.07363 47.77 5.91755 47.7728 5.75894C47.777 5.01632 47.6306 4.28066 47.3427 3.59701H47.3203ZM45.08 4.78404H39.569C39.5998 4.61866 39.6425 4.45575 39.6967 4.29659C39.8208 3.89211 40.0363 3.52211 40.3262 3.21563C40.5906 2.94917 40.9161 2.75232 41.2738 2.64242C41.656 2.52704 42.0532 2.46998 42.4522 2.47317C42.8786 2.47203 43.2995 2.57012 43.6821 2.75977C44.0572 2.94306 44.3877 3.20734 44.6499 3.53382C44.9039 3.8467 45.0543 4.23178 45.08 4.6351V4.78404Z" fill="white"/>
</svg>
